<svg width="960" height="640" viewBox="0 0 960 640" fill="none" xmlns="http://www.w3.org/2000/svg">
  <rect width="960" height="640" fill="#eef2f7"/>
  <rect x="620" y="0" width="340" height="640" fill="#f8fafc" stroke="#cbd5e1"/>
  <text x="644" y="42" font-family="Inter, Segoe UI, Arial" font-size="22" font-weight="700" fill="#111827">Scriptly Assistant</text>
  <g font-family="Inter, Segoe UI, Arial" font-size="13">
    <rect x="644" y="70" width="138" height="36" rx="8" fill="#ffffff" stroke="#cbd5e1"/>
    <text x="687" y="93" fill="#111827">Grammar</text>
    <rect x="794" y="70" width="138" height="36" rx="8" fill="#111827"/>
    <text x="838" y="93" fill="#ffffff">Rewrite</text>
    <rect x="644" y="116" width="138" height="36" rx="8" fill="#ffffff" stroke="#cbd5e1"/>
    <text x="697" y="139" fill="#111827">Tone</text>
    <rect x="794" y="116" width="138" height="36" rx="8" fill="#ffffff" stroke="#cbd5e1"/>
    <text x="840" y="139" fill="#111827">Hinglish</text>
    <rect x="644" y="162" width="138" height="36" rx="8" fill="#ffffff" stroke="#cbd5e1"/>
    <text x="689" y="185" fill="#111827">Humanize</text>
    <rect x="794" y="162" width="138" height="36" rx="8" fill="#ffffff" stroke="#cbd5e1"/>
    <text x="829" y="185" fill="#111827">Smart Reply</text>
  </g>
  <rect x="644" y="224" width="288" height="140" rx="10" fill="#ffffff" stroke="#cbd5e1"/>
  <text x="662" y="254" font-family="Inter, Segoe UI, Arial" font-size="15" fill="#475569">Kal client call hai, please prepare PPT</text>
  <text x="662" y="280" font-family="Inter, Segoe UI, Arial" font-size="15" fill="#475569">and share by EOD.</text>
  <rect x="644" y="382" width="288" height="40" rx="8" fill="#111827"/>
  <text x="745" y="407" font-family="Inter, Segoe UI, Arial" font-size="14" font-weight="700" fill="#ffffff">Run Scriptly</text>
  <text x="644" y="462" font-family="Inter, Segoe UI, Arial" font-size="13" font-weight="700" fill="#475569">OUTPUT</text>
  <rect x="644" y="476" width="288" height="116" rx="10" fill="#ffffff" stroke="#d8dee9"/>
  <text x="662" y="506" font-family="Inter, Segoe UI, Arial" font-size="15" fill="#111827">We have a client call tomorrow.</text>
  <text x="662" y="532" font-family="Inter, Segoe UI, Arial" font-size="15" fill="#111827">Please prepare the PPT and</text>
  <text x="662" y="558" font-family="Inter, Segoe UI, Arial" font-size="15" fill="#111827">share it by end of day.</text>
  <rect x="72" y="92" width="460" height="360" rx="18" fill="#ffffff" stroke="#d8dee9"/>
  <text x="104" y="142" font-family="Inter, Segoe UI, Arial" font-size="26" font-weight="700" fill="#111827">Email draft</text>
  <rect x="104" y="178" width="360" height="16" rx="8" fill="#e2e8f0"/>
  <rect x="104" y="216" width="300" height="16" rx="8" fill="#e2e8f0"/>
  <rect x="104" y="254" width="380" height="16" rx="8" fill="#e2e8f0"/>
  <rect x="104" y="292" width="332" height="16" rx="8" fill="#e2e8f0"/>
  <rect x="104" y="342" width="112" height="36" rx="8" fill="#14b8a6"/>
  <text x="135" y="365" font-family="Inter, Segoe UI, Arial" font-size="14" font-weight="700" fill="#ffffff">Send</text>
</svg>

