<svg width="960" height="540" viewBox="0 0 960 540" fill="none" xmlns="http://www.w3.org/2000/svg">
  <rect width="960" height="540" fill="#f3f4f6"/>
  <rect x="112" y="74" width="736" height="392" rx="18" fill="#ffffff" stroke="#d1d5db"/>
  <text x="150" y="128" font-family="Inter, Segoe UI, Arial" font-size="24" font-weight="700" fill="#111827">LinkedIn message</text>
  <rect x="150" y="166" width="660" height="210" rx="12" fill="#f8fafc" stroke="#cbd5e1"/>
  <text x="174" y="214" font-family="Inter, Segoe UI, Arial" font-size="20" fill="#111827">Hi, I am having one doubt about the role.</text>
  <text x="174" y="252" font-family="Inter, Segoe UI, Arial" font-size="20" fill="#111827">Can you please revert back by EOD?</text>
  <rect x="174" y="118" width="504" height="44" rx="9" fill="#111827"/>
  <g font-family="Inter, Segoe UI, Arial" font-size="13" font-weight="700">
    <rect x="184" y="126" width="48" height="28" rx="7" fill="#eef2ff"/>
    <text x="199" y="145" fill="#111827">Fix</text>
    <rect x="240" y="126" width="76" height="28" rx="7" fill="#eef2ff"/>
    <text x="253" y="145" fill="#111827">Rewrite</text>
    <rect x="324" y="126" width="76" height="28" rx="7" fill="#eef2ff"/>
    <text x="339" y="145" fill="#111827">Hinglish</text>
    <rect x="408" y="126" width="56" height="28" rx="7" fill="#eef2ff"/>
    <text x="421" y="145" fill="#111827">Tone</text>
    <rect x="472" y="126" width="86" height="28" rx="7" fill="#eef2ff"/>
    <text x="486" y="145" fill="#111827">Humanize</text>
    <rect x="566" y="126" width="64" height="28" rx="7" fill="#eef2ff"/>
    <text x="582" y="145" fill="#111827">Reply</text>
  </g>
  <rect x="174" y="394" width="420" height="112" rx="12" fill="#ffffff" stroke="#d8dee9"/>
  <text x="194" y="424" font-family="Inter, Segoe UI, Arial" font-size="14" font-weight="700" fill="#111827">Scriptly suggestion</text>
  <text x="194" y="452" font-family="Inter, Segoe UI, Arial" font-size="16" fill="#111827">Hi, I have a question about the role.</text>
  <text x="194" y="478" font-family="Inter, Segoe UI, Arial" font-size="16" fill="#111827">Could you please respond by end of day?</text>
  <rect x="628" y="404" width="90" height="36" rx="8" fill="#111827"/>
  <text x="650" y="427" font-family="Inter, Segoe UI, Arial" font-size="14" font-weight="700" fill="#ffffff">Accept</text>
  <rect x="728" y="404" width="90" height="36" rx="8" fill="#eef2ff"/>
  <text x="751" y="427" font-family="Inter, Segoe UI, Arial" font-size="14" font-weight="700" fill="#111827">Dismiss</text>
</svg>

