<svg width="1200" height="760" viewBox="0 0 1200 760" fill="none" xmlns="http://www.w3.org/2000/svg">
  <rect width="1200" height="760" fill="#eef2f7"/>

  <rect x="96" y="64" width="1008" height="632" rx="18" fill="#ffffff" stroke="#cbd5e1"/>
  <rect x="96" y="64" width="1008" height="54" rx="18" fill="#f8fafc"/>
  <circle cx="128" cy="91" r="7" fill="#ef4444"/>
  <circle cx="152" cy="91" r="7" fill="#f59e0b"/>
  <circle cx="176" cy="91" r="7" fill="#22c55e"/>
  <rect x="226" y="78" width="620" height="28" rx="14" fill="#ffffff" stroke="#d8dee9"/>
  <text x="250" y="97" font-family="Inter, Segoe UI, Arial" font-size="13" fill="#64748b">linkedin.com/messaging/thread</text>

  <rect x="126" y="118" width="230" height="578" fill="#f8fafc"/>
  <text x="156" y="164" font-family="Inter, Segoe UI, Arial" font-size="20" font-weight="700" fill="#111827">Messages</text>
  <rect x="156" y="190" width="158" height="14" rx="7" fill="#cbd5e1"/>
  <rect x="156" y="232" width="170" height="52" rx="10" fill="#ffffff" stroke="#d8dee9"/>
  <circle cx="182" cy="258" r="14" fill="#14b8a6"/>
  <rect x="208" y="246" width="88" height="10" rx="5" fill="#334155"/>
  <rect x="208" y="264" width="64" height="8" rx="4" fill="#94a3b8"/>
  <rect x="156" y="302" width="170" height="52" rx="10" fill="#ffffff" stroke="#d8dee9"/>
  <circle cx="182" cy="328" r="14" fill="#111827"/>
  <rect x="208" y="316" width="96" height="10" rx="5" fill="#334155"/>
  <rect x="208" y="334" width="78" height="8" rx="4" fill="#94a3b8"/>

  <rect x="356" y="118" width="748" height="578" fill="#ffffff"/>
  <rect x="388" y="146" width="684" height="72" rx="14" fill="#f8fafc" stroke="#e2e8f0"/>
  <circle cx="424" cy="182" r="22" fill="#111827"/>
  <text x="416" y="190" font-family="Inter, Segoe UI, Arial" font-size="22" font-weight="700" fill="#ffffff">R</text>
  <text x="462" y="176" font-family="Inter, Segoe UI, Arial" font-size="18" font-weight="700" fill="#111827">Recruiter</text>
  <text x="462" y="198" font-family="Inter, Segoe UI, Arial" font-size="13" fill="#64748b">Usually replies within a day</text>

  <rect x="450" y="260" width="470" height="76" rx="16" fill="#eef2ff"/>
  <text x="476" y="292" font-family="Inter, Segoe UI, Arial" font-size="17" fill="#111827">Hi, thanks for applying. Could you share</text>
  <text x="476" y="318" font-family="Inter, Segoe UI, Arial" font-size="17" fill="#111827">your availability for a quick call?</text>

  <rect x="388" y="510" width="684" height="126" rx="16" fill="#ffffff" stroke="#cbd5e1"/>
  <text x="418" y="552" font-family="Inter, Segoe UI, Arial" font-size="19" fill="#111827">Hi, I am having one doubt about the role.</text>
  <text x="418" y="586" font-family="Inter, Segoe UI, Arial" font-size="19" fill="#111827">Can you please revert back by EOD?</text>
  <rect x="418" y="600" width="326" height="3" rx="1.5" fill="#ef4444"/>

  <rect x="418" y="452" width="604" height="46" rx="10" fill="#111827"/>
  <g font-family="Inter, Segoe UI, Arial" font-size="13" font-weight="700">
    <rect x="430" y="461" width="58" height="28" rx="7" fill="#eef2ff"/>
    <text x="448" y="480" fill="#111827">Fix</text>
    <rect x="496" y="461" width="92" height="28" rx="7" fill="#eef2ff"/>
    <text x="516" y="480" fill="#111827">Rewrite</text>
    <rect x="596" y="461" width="94" height="28" rx="7" fill="#eef2ff"/>
    <text x="613" y="480" fill="#111827">Hinglish</text>
    <rect x="698" y="461" width="66" height="28" rx="7" fill="#eef2ff"/>
    <text x="716" y="480" fill="#111827">Tone</text>
    <rect x="772" y="461" width="104" height="28" rx="7" fill="#eef2ff"/>
    <text x="790" y="480" fill="#111827">Humanize</text>
    <rect x="884" y="461" width="72" height="28" rx="7" fill="#eef2ff"/>
    <text x="902" y="480" fill="#111827">Reply</text>
    <rect x="964" y="461" width="46" height="28" rx="7" fill="#14b8a6"/>
    <text x="982" y="480" fill="#ffffff">S</text>
  </g>

  <rect x="650" y="334" width="392" height="146" rx="14" fill="#ffffff" stroke="#d8dee9"/>
  <rect x="650" y="334" width="392" height="42" rx="14" fill="#f8fafc"/>
  <text x="674" y="361" font-family="Inter, Segoe UI, Arial" font-size="14" font-weight="700" fill="#111827">Scriptly suggestion</text>
  <text x="674" y="406" font-family="Inter, Segoe UI, Arial" font-size="16" fill="#111827">Hi, I have a question about the role.</text>
  <text x="674" y="432" font-family="Inter, Segoe UI, Arial" font-size="16" fill="#111827">Could you please respond by end of day?</text>
  <rect x="674" y="450" width="76" height="28" rx="7" fill="#111827"/>
  <text x="694" y="469" font-family="Inter, Segoe UI, Arial" font-size="13" font-weight="700" fill="#ffffff">Accept</text>
  <rect x="758" y="450" width="82" height="28" rx="7" fill="#eef2ff"/>
  <text x="778" y="469" font-family="Inter, Segoe UI, Arial" font-size="13" font-weight="700" fill="#111827">Dismiss</text>
  <text x="858" y="469" font-family="Inter, Segoe UI, Arial" font-size="13" fill="#64748b">Clarity + tone</text>

  <rect x="934" y="640" width="104" height="34" rx="9" fill="#14b8a6"/>
  <text x="970" y="662" font-family="Inter, Segoe UI, Arial" font-size="14" font-weight="700" fill="#ffffff">Send</text>
</svg>
